<?xml version="1.0" encoding="UTF-8"?>
<svg version="1.1" viewBox="0 0 2048 610" width="376" height="112" xmlns="http://www.w3.org/2000/svg">
<path transform="translate(1023,235)" d="m0 0h32l23 3 19 5 14 7 1-12h62l1 5-1 12 6-4 9-7 13-6 14-3h25l17 3 12 5 14 8 13 12 8 10 6 10 6 15 4 18 1 15 7-4 6-4 15-5 18-3 13-1 45-1-4-12-6-8-12-6-5-1h-26l-19 5-12 6-4 3-4-2-20-40 1-3 16-8 16-6 17-4 17-2h30l21 3 15 5 13 7 11 9 8 10 7 14 4 16 1 1 5-12 9-14 9-10 10-9 13-8 11-5 12-4 18-3h30l18 3 13 5 15 8 11 9 8 10 4 4 9-10 8-8 14-9 13-6 13-4 13-2h28l18 3 16 6 15 9 12 10 11 14 8 16 4 12 2 11v30l-1 1-133 1-2 1 4 8 6 8 11 7 11 4 6 1h18l14-4 12-7 5-4 4 2 24 24 6 7v5l-10 9-16 9-15 5-20 4-20 1-16-1-23-5-16-7-11-6-11-9-11-11-3-1-2 5-8 10-10 8-12 7-17 6-16 3h-34l-21-5-17-7-14-9-10-9-9-10-8-14-4-8-1 59h-60l-1-20-6 5-5 6-11 7-14 4-15 2-20-1-15-4-14-7-10-9-7-8-5-12-5 5-9 10-7 7-14 9-16 6-13 3-17 1-13-1-16-5-8-4-11-8h-1v80l-1 1h-64l-1-1v-95l-13 13-11 7-14 6-21 5-21 2-27-1-31-6-20-7-9-5 1-6 7-15 9-22 5-1 12 6 20 6 12 2 12 1h13l13-2 8-5 1-4-3-7-10-4-49-8-16-5-10-5-10-9-6-7-4-10-2-9v-14l3-13 7-13 11-11 11-7 11-5 17-5zm88 19-9 19-8 18-1 2-5-1-12-5-19-5-7-1h-22l-10 3-6 4-3 4v5l7 6 9 3 44 8 17 5 14 7 11 11h2v-83zm643 27-11 4-8 6-6 7-6 12 1 3h77l-5-12-6-9-7-6-9-4-5-1zm-164 5-13 3-10 6-7 8-5 10-2 9v19l4 13 8 11 10 7 8 3 6 1h8l12-3 11-7 7-8 3-6 6 2 20 10 9 5-1-8-4-16v-26l4-18 1-7-32 16h-3l-7-10-5-5-9-6-6-2zm-377 0-10 2-10 5-8 8-5 10-3 12v17l3 12 6 10 7 7 10 5 10 2 13-1 10-4 10-9 6-10 3-11v-20l-4-13-6-9-9-8-11-4zm184 62-12 1-9 4-5 6-2 5 1 9 5 8 10 5 10 1 11-2 11-6 6-7 3-7v-16l-1-1z"/>
<path transform="translate(326,169)" d="m0 0h65v128h2l2-5 8-15 9-11 8-8 13-9 16-8 19-5 8-1h26l19 3 16 6 14 8 10 9 9 9 6 9-10-25-6-16h67l9 21 19 49 14 36 2 5h2l12-30 18-43 15-37 1-1h62l-3 9-17 41-13 32-15 36-17 41-11 26-1 1-65 1-4-4-17-40-12-30-11-27-8-19 2 12 1 17-1 12-1 1-23 1h-110l-2 1 6 11 5 6 14 8 14 3h17l14-4 11-6 6-5 4 1 9 10 21 21 1 5-11 10-16 9-18 6-17 3-19 1-17-1-19-4-16-6-15-8-13-11-9-10-9-15-4-8v57l-1 2h-61l-1-1 1-15-7 4-9 7-12 5-13 3-18 1-17-2-16-5-14-7-10-8-11-11-9-14-7-16-4-16-1-8v-19l2-14 5-17 9-17 8-10 11-11 14-9 15-6 15-3h26l14 3 10 4 11 8 3 2zm157 112-10 3-10 7-7 9-4 9v4h76l-1-7-7-12-9-8-9-4-4-1zm94 0m-290 5-12 2-11 6-8 9-5 11-2 9v17l4 13 6 10 9 8 10 4 6 1h8l12-3 9-6 8-9 5-14 1-5v-18l-4-13-6-9-9-8-10-4z"/>
<path transform="translate(881,224)" d="m0 0h5l-1 7-8 38-6 29v2l24-8h3l-2 10-12 43-15 52-7 25-5 18h-2v-14l3-64 2-26-20 8-7 3h-3l1-28 4-55 1-20 2-5 38-13z"/>
</svg>
